<?xml version="1.0" encoding="utf-8"?>
<!-- Generator: Adobe Illustrator 18.0.0, SVG Export Plug-In . SVG Version: 6.00 Build 0)  -->
<!DOCTYPE svg PUBLIC "-//W3C//DTD SVG 1.1//EN" "http://www.w3.org/Graphics/SVG/1.1/DTD/svg11.dtd">
<svg version="1.1" id="Layer_1" xmlns="http://www.w3.org/2000/svg" xmlns:xlink="http://www.w3.org/1999/xlink" x="0px" y="0px"
	 viewBox="0 0 64 64" enable-background="new 0 0 64 64" xml:space="preserve">
<g>
	<g>
		<g>
			<g>
				<polygon points="47,0 47,10 56,10 				"/>
			</g>
		</g>
	</g>
	<g>
		<g>
			<path d="M43,14V0H10C8.9,0,8,0.9,8,2.1v59.9c0,1.1,0.9,2.1,2,2.1h43.7c1.1,0,2.3-0.9,2.3-2.1V14H43z M23.9,18l2.2,2L21,25.5
				l5.1,5.5l-2.2,2L17,25.5L23.9,18z M26.1,53.2c-0.3,0.4-0.6,0.7-1,1c-0.8,0.5-1.8,0.8-3,0.8c-0.9,0-1.7-0.2-2.4-0.5
				c-0.7-0.3-1.2-0.8-1.6-1.3c-0.4-0.6-0.7-1.2-0.8-1.9C17.1,50.5,17,49.8,17,49c0-0.8,0.1-1.5,0.3-2.2c0.2-0.7,0.5-1.4,0.9-1.9
				c0.4-0.6,0.9-1,1.6-1.3c0.7-0.3,1.5-0.5,2.4-0.5c1,0,1.9,0.2,2.7,0.7c0.4,0.2,0.7,0.5,1,1c0.3,0.4,0.5,1,0.8,1.6l-2.5,0.5
				c-0.2-0.5-0.4-0.9-0.7-1.2c-0.3-0.3-0.8-0.5-1.4-0.5c-0.3,0-0.6,0.1-0.9,0.2c-0.3,0.1-0.5,0.3-0.6,0.5c-0.2,0.2-0.3,0.5-0.4,0.7
				c-0.1,0.3-0.2,0.6-0.2,0.8c-0.1,0.3-0.1,0.6-0.1,0.9c0,0.3,0,0.5,0,0.8c0,1.3,0.2,2.2,0.6,2.9c0.4,0.6,1,0.9,1.8,0.9
				c0.3,0,0.6,0,0.8-0.1c0.2-0.1,0.4-0.2,0.6-0.4c0.2-0.2,0.3-0.3,0.5-0.5c0.1-0.2,0.3-0.4,0.4-0.7l2.5,0.6
				C26.7,52.4,26.4,52.9,26.1,53.2z M35.5,54.1c-0.8,0.6-1.9,0.9-3.3,0.9c-0.9,0-1.8-0.2-2.7-0.7c-0.5-0.2-0.9-0.5-1.2-0.9
				c-0.3-0.4-0.6-0.8-0.9-1.4l2.3-0.9c0.1,0.3,0.3,0.5,0.4,0.7s0.3,0.4,0.5,0.6c0.2,0.2,0.4,0.3,0.7,0.4c0.3,0.1,0.6,0.1,0.9,0.1
				c0.2,0,0.5,0,0.7-0.1c0.2,0,0.4-0.1,0.6-0.2c0.2-0.1,0.3-0.2,0.4-0.4c0.1-0.2,0.2-0.4,0.2-0.7c0-0.4-0.2-0.7-0.6-1
				c-0.5-0.3-1-0.6-1.7-0.8c-1.3-0.5-2.3-0.9-2.9-1.4c-0.7-0.5-1-1.3-1-2.2c0-0.9,0.4-1.7,1.2-2.3s1.8-0.9,3-0.9
				c1,0,1.9,0.2,2.7,0.7c0.4,0.2,0.7,0.5,1,0.8c0.3,0.3,0.6,0.8,0.8,1.3L34,46.5c-0.2-0.5-0.5-0.8-0.8-1.1c-0.3-0.3-0.7-0.4-1.3-0.4
				c-0.2,0-0.4,0-0.5,0.1c-0.2,0-0.4,0.1-0.5,0.2c-0.2,0.1-0.3,0.2-0.4,0.3c-0.1,0.1-0.1,0.3-0.1,0.5c0,0.2,0.1,0.3,0.2,0.5
				c0.1,0.1,0.3,0.3,0.5,0.4c0.5,0.3,1.2,0.5,1.8,0.8c1,0.3,1.8,0.7,2.6,1.3c0.8,0.6,1.2,1.4,1.2,2.4C36.7,52.6,36.3,53.5,35.5,54.1
				z M29.4,36.6l-2.8-1.1l8-20l2.8,1.1L29.4,36.6z M45.8,54.1C45,54.7,43.9,55,42.5,55c-0.9,0-1.8-0.2-2.7-0.7
				c-0.5-0.2-0.9-0.5-1.2-0.9c-0.3-0.4-0.6-0.8-0.9-1.4l2.3-0.9c0.1,0.3,0.3,0.5,0.4,0.7s0.3,0.4,0.5,0.6c0.2,0.2,0.4,0.3,0.7,0.4
				c0.3,0.1,0.6,0.1,0.9,0.1c0.2,0,0.5,0,0.7-0.1c0.2,0,0.4-0.1,0.6-0.2c0.2-0.1,0.3-0.2,0.4-0.4c0.1-0.2,0.2-0.4,0.2-0.7
				c0-0.4-0.2-0.7-0.6-1c-0.5-0.3-1-0.6-1.7-0.8c-1.3-0.5-2.3-0.9-2.9-1.4c-0.7-0.5-1-1.3-1-2.2c0-0.9,0.4-1.7,1.2-2.3
				c0.8-0.6,1.8-0.9,3-0.9c1,0,1.9,0.2,2.7,0.7c0.4,0.2,0.7,0.5,1,0.8c0.3,0.3,0.6,0.8,0.8,1.3l-2.5,0.7c-0.2-0.5-0.5-0.8-0.8-1.1
				c-0.3-0.3-0.7-0.4-1.3-0.4c-0.2,0-0.4,0-0.5,0.1c-0.2,0-0.4,0.1-0.5,0.2c-0.2,0.1-0.3,0.2-0.4,0.3c-0.1,0.1-0.1,0.3-0.1,0.5
				c0,0.2,0.1,0.3,0.2,0.5c0.1,0.1,0.3,0.3,0.5,0.4c0.5,0.3,1.2,0.5,1.8,0.8c1,0.3,1.8,0.7,2.6,1.3c0.8,0.6,1.2,1.4,1.2,2.4
				C47,52.6,46.6,53.5,45.8,54.1z M40.1,33l-2.2-2l5.1-5.5L37.9,20l2.2-2l6.9,7.5L40.1,33z"/>
		</g>
	</g>
</g>
</svg>
