<?xml version="1.0" encoding="utf-8"?>
<!-- Generator: Adobe Illustrator 18.0.0, SVG Export Plug-In . SVG Version: 6.00 Build 0)  -->
<!DOCTYPE svg PUBLIC "-//W3C//DTD SVG 1.1//EN" "http://www.w3.org/Graphics/SVG/1.1/DTD/svg11.dtd">
<svg version="1.1" id="Layer_1" xmlns="http://www.w3.org/2000/svg" xmlns:xlink="http://www.w3.org/1999/xlink" x="0px" y="0px"
	 viewBox="0 0 64 64" enable-background="new 0 0 64 64" xml:space="preserve">
<g>
	<g>
		<g>
			<path fill="#FFD833" d="M32,0c17.7,0,32,14.3,32,32S49.7,64,32,64S0,49.7,0,32S14.3,0,32,0z"/>
		</g>
	</g>
	<g>
		<g>
			<path fill="#FFFFFF" d="M41.8,10l8.2,7.8v34.8c0,0.8-0.7,1.4-1.5,1.4h-33c-0.8,0-1.5-0.6-1.5-1.4V11.4c0-0.8,0.7-1.4,1.5-1.4
				H41.8z"/>
		</g>
	</g>
	<g>
		<g>
			<polygon fill="#D3D5DD" points="50,17.8 41.8,17.8 41.8,10 			"/>
		</g>
	</g>
	<g>
		<g>
			<polygon fill="#3A3E7C" points="37.5,21 42,26 37.5,31 36,29.6 39.3,26 36,22.4 			"/>
		</g>
	</g>
	<g>
		<g>
			<path d="M41.9,41.9l-1.7,0.5c-0.1-0.3-0.3-0.5-0.5-0.7c-0.2-0.2-0.5-0.3-0.9-0.3c-0.1,0-0.2,0-0.4,0c-0.1,0-0.2,0.1-0.3,0.1
				c-0.1,0.1-0.2,0.1-0.2,0.2c-0.1,0.1-0.1,0.2-0.1,0.3c0,0.1,0,0.2,0.1,0.3c0.1,0.1,0.2,0.2,0.4,0.3c0.4,0.2,0.8,0.4,1.2,0.5
				c0.6,0.2,1.2,0.5,1.7,0.8c0.5,0.4,0.8,0.9,0.8,1.6c0,0.8-0.3,1.4-0.8,1.8C40.7,47.8,40,48,39,48c-0.6,0-1.2-0.2-1.8-0.5
				c-0.3-0.1-0.6-0.3-0.8-0.6c-0.2-0.2-0.4-0.5-0.6-0.9l1.5-0.6c0.1,0.2,0.2,0.4,0.3,0.5c0.1,0.2,0.2,0.3,0.4,0.4
				c0.1,0.1,0.3,0.2,0.5,0.2c0.2,0.1,0.4,0.1,0.6,0.1c0.2,0,0.3,0,0.5,0c0.2,0,0.3-0.1,0.4-0.1c0.1-0.1,0.2-0.2,0.3-0.3
				c0.1-0.1,0.1-0.3,0.1-0.4c0-0.3-0.2-0.5-0.4-0.7c-0.3-0.2-0.7-0.4-1.1-0.5c-0.9-0.3-1.5-0.6-2-1c-0.5-0.3-0.7-0.8-0.7-1.5
				c0-0.6,0.3-1.1,0.8-1.5c0.5-0.4,1.2-0.6,2-0.6c0.7,0,1.3,0.2,1.8,0.5c0.3,0.1,0.5,0.3,0.7,0.6C41.5,41.2,41.7,41.5,41.9,41.9z"/>
		</g>
	</g>
	<g>
		<g>
			<polygon fill="#BD6AE5" points="36,18.8 30.1,34 28,33.2 33.9,18 			"/>
		</g>
	</g>
	<g>
		<g>
			<path d="M35,41.9l-1.7,0.5c-0.1-0.3-0.3-0.5-0.5-0.7c-0.2-0.2-0.5-0.3-0.9-0.3c-0.1,0-0.2,0-0.4,0c-0.1,0-0.2,0.1-0.3,0.1
				c-0.1,0.1-0.2,0.1-0.2,0.2c-0.1,0.1-0.1,0.2-0.1,0.3c0,0.1,0,0.2,0.1,0.3c0.1,0.1,0.2,0.2,0.4,0.3c0.4,0.2,0.8,0.4,1.2,0.5
				c0.6,0.2,1.2,0.5,1.7,0.8c0.5,0.4,0.8,0.9,0.8,1.6c0,0.8-0.3,1.4-0.8,1.8C33.8,47.8,33,48,32.1,48c-0.6,0-1.2-0.2-1.8-0.5
				c-0.3-0.1-0.6-0.3-0.8-0.6c-0.2-0.2-0.4-0.5-0.6-0.9l1.5-0.6c0.1,0.2,0.2,0.4,0.3,0.5c0.1,0.2,0.2,0.3,0.4,0.4
				c0.1,0.1,0.3,0.2,0.5,0.2c0.2,0.1,0.4,0.1,0.6,0.1c0.2,0,0.3,0,0.5,0c0.2,0,0.3-0.1,0.4-0.1c0.1-0.1,0.2-0.2,0.3-0.3
				c0.1-0.1,0.1-0.3,0.1-0.4c0-0.3-0.1-0.5-0.4-0.7c-0.3-0.2-0.7-0.4-1.1-0.5c-0.9-0.3-1.5-0.6-1.9-1c-0.5-0.3-0.7-0.8-0.7-1.5
				c0-0.6,0.3-1.1,0.8-1.5c0.5-0.4,1.2-0.6,2-0.6c0.7,0,1.3,0.2,1.8,0.5c0.3,0.1,0.5,0.3,0.7,0.6C34.7,41.2,34.8,41.5,35,41.9z"/>
		</g>
	</g>
	<g>
		<g>
			<path d="M28.6,45.8C28.6,45.8,28.6,45.9,28.6,45.8c-0.2,0.4-0.4,0.7-0.6,1c-0.2,0.3-0.4,0.5-0.7,0.6c-0.5,0.4-1.2,0.5-2,0.5
				c-0.6,0-1.2-0.1-1.6-0.3c-0.4-0.2-0.8-0.5-1-0.9s-0.4-0.8-0.6-1.3C22.1,45,22,44.5,22,44c0-0.5,0.1-1,0.2-1.5
				c0.1-0.5,0.3-0.9,0.6-1.3c0.3-0.4,0.6-0.7,1-0.9c0.4-0.2,1-0.3,1.6-0.3c0.7,0,1.3,0.1,1.8,0.4c0.3,0.2,0.5,0.4,0.7,0.6
				c0.2,0.3,0.4,0.6,0.5,1.1l-1.6,0.4c-0.1-0.3-0.3-0.6-0.5-0.8c-0.2-0.2-0.5-0.3-0.9-0.3c-0.2,0-0.4,0.1-0.6,0.1
				c-0.2,0.1-0.3,0.2-0.4,0.3c-0.1,0.1-0.2,0.3-0.3,0.5c-0.1,0.2-0.1,0.4-0.2,0.6c0,0.2-0.1,0.4-0.1,0.6c0,0.2,0,0.4,0,0.5
				c0,0.8,0.1,1.5,0.4,1.9c0.2,0.4,0.6,0.6,1.2,0.6c0.2,0,0.4,0,0.6-0.1c0.2-0.1,0.3-0.1,0.4-0.2c0.1-0.1,0.2-0.2,0.3-0.4
				c0.1-0.1,0.2-0.3,0.3-0.5L28.6,45.8z"/>
		</g>
	</g>
	<g>
		<g>
			<polygon fill="#3A3E7C" points="28,22.4 24.7,26 28,29.6 26.5,31 22,26 26.5,21 			"/>
		</g>
	</g>
</g>
</svg>
