<?xml version="1.0" encoding="utf-8"?>
<!-- Generator: Adobe Illustrator 18.0.0, SVG Export Plug-In . SVG Version: 6.00 Build 0)  -->
<!DOCTYPE svg PUBLIC "-//W3C//DTD SVG 1.1//EN" "http://www.w3.org/Graphics/SVG/1.1/DTD/svg11.dtd">
<svg version="1.1" id="Layer_1" xmlns="http://www.w3.org/2000/svg" xmlns:xlink="http://www.w3.org/1999/xlink" x="0px" y="0px"
	 viewBox="0 0 64 64" enable-background="new 0 0 64 64" xml:space="preserve">
<g>
	<g>
		<g>
			<g>
				<polygon points="47,0 47,10 56,10 				"/>
			</g>
		</g>
	</g>
	<g>
		<g>
			<path d="M43,14V0H10C8.9,0,8,0.9,8,2.1v59.9c0,1.1,0.9,2.1,2,2.1h43.7c1.1,0,2.3-0.9,2.3-2.1V14H43z M37.9,20l2.2-2l6.9,7.5
				L40.1,33l-2.2-2l5.1-5.5L37.9,20z M34.6,15.4l2.8,1.1l-8,20l-2.8-1.1L34.6,15.4z M23.9,18l2.2,2L21,25.5l5.1,5.5l-2.2,2L17,25.5
				L23.9,18z M22.1,54h-2.3v-4.2h-3.6V54H14V44h2.2v3.9h3.6V44h2.2V54z M30.9,45.8h-2.7V54H26v-8.2h-2.7V44h7.6V45.8z M41.8,54h-2
				v-6.8l-2,6.8H36l-2-6.8V54h-2V44h3l1.9,6.4l1.9-6.4h3V54z M50,54h-6.7V44h2.2v8.2H50V54z"/>
		</g>
	</g>
</g>
</svg>
