<?xml version="1.0" encoding="utf-8"?>
<!-- Generator: Adobe Illustrator 18.0.0, SVG Export Plug-In . SVG Version: 6.00 Build 0)  -->
<!DOCTYPE svg PUBLIC "-//W3C//DTD SVG 1.1//EN" "http://www.w3.org/Graphics/SVG/1.1/DTD/svg11.dtd">
<svg version="1.1" id="Layer_1" xmlns="http://www.w3.org/2000/svg" xmlns:xlink="http://www.w3.org/1999/xlink" x="0px" y="0px"
	 viewBox="0 0 64 64" enable-background="new 0 0 64 64" xml:space="preserve">
<g>
	<g>
		<g>
			<path fill="#316CFF" d="M32,0c17.7,0,32,14.3,32,32S49.7,64,32,64S0,49.7,0,32S14.3,0,32,0z"/>
		</g>
	</g>
	<g>
		<g>
			<path fill="#FFFFFF" d="M41.8,10l8.2,7.8v34.8c0,0.8-0.7,1.4-1.5,1.4h-33c-0.8,0-1.5-0.6-1.5-1.4V11.4c0-0.8,0.7-1.4,1.5-1.4
				H41.8z"/>
		</g>
	</g>
	<g>
		<g>
			<polygon fill="#D3D5DD" points="50,17.8 41.8,17.8 41.8,10 			"/>
		</g>
	</g>
	<g>
		<g>
			<polygon fill="#3A3E7C" points="37.5,21 42,26 37.5,31 36,29.6 39.3,26 36,22.4 			"/>
		</g>
	</g>
	<g>
		<g>
			<path d="M38.9,41.4l-2,0.6c-0.2-0.4-0.4-0.7-0.6-0.9s-0.6-0.3-1-0.3c-0.1,0-0.3,0-0.4,0c-0.2,0-0.3,0.1-0.4,0.1
				c-0.1,0.1-0.2,0.2-0.3,0.3C34,41.3,34,41.4,34,41.6c0,0.1,0,0.3,0.1,0.4c0.1,0.1,0.2,0.2,0.4,0.3c0.4,0.2,0.9,0.5,1.5,0.6
				c0.8,0.3,1.5,0.6,2.1,1.1c0.6,0.5,1,1.1,1,2c0,1-0.3,1.7-1,2.2c-0.6,0.5-1.5,0.8-2.6,0.8c-0.7,0-1.5-0.2-2.1-0.6
				c-0.4-0.2-0.7-0.4-1-0.7s-0.5-0.7-0.7-1.2l1.8-0.8c0.1,0.2,0.2,0.4,0.3,0.6c0.1,0.2,0.3,0.3,0.4,0.5c0.2,0.1,0.4,0.2,0.6,0.3
				c0.2,0.1,0.5,0.1,0.7,0.1c0.2,0,0.4,0,0.6,0c0.2,0,0.3-0.1,0.5-0.2c0.1-0.1,0.2-0.2,0.3-0.3c0.1-0.1,0.1-0.3,0.1-0.5
				c0-0.3-0.2-0.6-0.5-0.8c-0.4-0.2-0.8-0.5-1.4-0.6c-1.1-0.4-1.8-0.8-2.3-1.2c-0.5-0.4-0.8-1.1-0.8-1.8c0-0.8,0.3-1.4,0.9-1.9
				c0.6-0.5,1.4-0.8,2.4-0.8c0.8,0,1.5,0.2,2.1,0.6c0.3,0.2,0.6,0.4,0.8,0.7C38.4,40.6,38.7,40.9,38.9,41.4z"/>
		</g>
	</g>
	<g>
		<g>
			<polygon fill="#BD6AE5" points="36,18.8 30.1,34 28,33.2 33.9,18 			"/>
		</g>
	</g>
	<g>
		<g>
			<path d="M30.3,39.1v7c0,1-0.2,1.7-0.7,2.1c-0.5,0.5-1.2,0.7-2,0.7c-0.6,0-1.1-0.1-1.5-0.4c-0.4-0.2-0.7-0.6-1.1-1.1l1.5-1.1
				c0.1,0.2,0.2,0.4,0.4,0.5c0.1,0.2,0.3,0.2,0.6,0.2c0.1,0,0.2,0,0.3-0.1C27.9,47,28,47,28,46.9c0-0.1,0.1-0.2,0.1-0.3
				c0-0.1,0-0.2,0-0.3v-7.1H30.3z"/>
		</g>
	</g>
	<g>
		<g>
			<polygon fill="#3A3E7C" points="28,22.4 24.7,26 28,29.6 26.5,31 22,26 26.5,21 			"/>
		</g>
	</g>
</g>
</svg>
