<?xml version="1.0" encoding="utf-8"?>
<!-- Generator: Adobe Illustrator 18.0.0, SVG Export Plug-In . SVG Version: 6.00 Build 0)  -->
<!DOCTYPE svg PUBLIC "-//W3C//DTD SVG 1.1//EN" "http://www.w3.org/Graphics/SVG/1.1/DTD/svg11.dtd">
<svg version="1.1" id="Layer_1" xmlns="http://www.w3.org/2000/svg" xmlns:xlink="http://www.w3.org/1999/xlink" x="0px" y="0px"
	 viewBox="0 0 64 64" enable-background="new 0 0 64 64" xml:space="preserve">
<g>
	<g>
		<g>
			<g>
				<polygon points="47,0 47,10 56,10 				"/>
			</g>
		</g>
	</g>
	<g>
		<g>
			<path d="M43,14V0H10C8.9,0,8,0.9,8,2.1v59.9c0,1.1,0.9,2.1,2,2.1h43.7c1.1,0,2.3-0.9,2.3-2.1V14H43z M34.6,15.4l2.8,1.1l-8,20
				l-2.8-1.1L34.6,15.4z M17,25.5l6.9-7.5l2.2,2L21,25.5l5.1,5.5l-2.2,2L17,25.5z M30.1,51.6c0,1.1-0.3,2-0.9,2.5
				c-0.6,0.6-1.3,0.8-2.3,0.8c-0.7,0-1.2-0.1-1.7-0.4c-0.4-0.3-0.8-0.7-1.2-1.3l1.7-1.3c0.1,0.2,0.3,0.5,0.4,0.6
				c0.2,0.2,0.4,0.3,0.7,0.3c0.1,0,0.3,0,0.4-0.1c0.1-0.1,0.2-0.2,0.2-0.3c0.1-0.1,0.1-0.2,0.1-0.4c0-0.1,0-0.3,0-0.4v-8.6h2.5V51.6
				z M38.9,54.1c-0.7,0.6-1.7,0.9-3,0.9c-0.8,0-1.7-0.2-2.4-0.7c-0.4-0.2-0.8-0.5-1.1-0.9c-0.3-0.4-0.6-0.8-0.8-1.4l2.1-0.9
				c0.1,0.3,0.3,0.5,0.4,0.7c0.1,0.2,0.3,0.4,0.5,0.6c0.2,0.2,0.4,0.3,0.6,0.4c0.2,0.1,0.5,0.1,0.8,0.1c0.2,0,0.4,0,0.6-0.1
				c0.2,0,0.4-0.1,0.5-0.2c0.2-0.1,0.3-0.2,0.4-0.4c0.1-0.2,0.1-0.4,0.1-0.7c0-0.4-0.2-0.7-0.6-1c-0.4-0.3-1-0.6-1.6-0.8
				c-1.2-0.5-2.1-0.9-2.7-1.4c-0.6-0.5-0.9-1.3-0.9-2.2c0-0.9,0.4-1.7,1.1-2.3c0.7-0.6,1.6-0.9,2.7-0.9c0.9,0,1.7,0.2,2.4,0.7
				c0.4,0.2,0.7,0.5,1,0.8c0.3,0.3,0.5,0.8,0.8,1.3l-2.3,0.7c-0.2-0.5-0.4-0.8-0.7-1.1c-0.3-0.3-0.7-0.4-1.2-0.4
				c-0.2,0-0.3,0-0.5,0.1c-0.2,0-0.3,0.1-0.5,0.2c-0.1,0.1-0.3,0.2-0.3,0.3c-0.1,0.1-0.1,0.3-0.1,0.5c0,0.2,0,0.3,0.1,0.5
				c0.1,0.1,0.3,0.3,0.5,0.4c0.5,0.3,1.1,0.5,1.7,0.8c0.9,0.3,1.7,0.7,2.4,1.3c0.7,0.6,1.1,1.4,1.1,2.4C40,52.6,39.6,53.5,38.9,54.1
				z M40.1,33l-2.2-2l5.1-5.5L37.9,20l2.2-2l6.9,7.5L40.1,33z"/>
		</g>
	</g>
</g>
</svg>
