<?xml version="1.0" encoding="utf-8"?>
<!-- Generator: Adobe Illustrator 18.0.0, SVG Export Plug-In . SVG Version: 6.00 Build 0)  -->
<!DOCTYPE svg PUBLIC "-//W3C//DTD SVG 1.1//EN" "http://www.w3.org/Graphics/SVG/1.1/DTD/svg11.dtd">
<svg version="1.1" id="Layer_1" xmlns="http://www.w3.org/2000/svg" xmlns:xlink="http://www.w3.org/1999/xlink" x="0px" y="0px"
	 viewBox="0 0 64 64" enable-background="new 0 0 64 64" xml:space="preserve">
<g>
	<g>
		<g>
			<path fill="#E84B4B" d="M32,0c17.7,0,32,14.3,32,32S49.7,64,32,64S0,49.7,0,32S14.3,0,32,0z"/>
		</g>
	</g>
	<g>
		<g>
			<circle fill="#FFFFFF" cx="32" cy="32" r="4"/>
		</g>
	</g>
	<g>
		<g>
			<path fill="#FFD41D" d="M50.9,34.2c0.2-1.4,0.2-2.9,0-4.4l-5.3-0.9c-0.2-0.7-0.4-1.5-0.7-2.2c-0.3-0.7-0.7-1.4-1.1-2.1l3.1-4.4
				c-0.9-1.2-2-2.2-3.1-3.1l-4.4,3.1c-1.3-0.8-2.8-1.4-4.3-1.8l-0.9-5.3c-1.4-0.2-2.9-0.2-4.4,0l-0.9,5.3c-0.7,0.2-1.5,0.4-2.2,0.7
				c-0.7,0.3-1.4,0.7-2.1,1.1l-4.4-3.1c-1.2,0.9-2.2,2-3.1,3.1l3.1,4.4c-0.8,1.3-1.4,2.8-1.8,4.3l-5.3,0.9c-0.2,1.4-0.2,2.9,0,4.4
				l5.3,0.9c0.2,0.7,0.4,1.5,0.7,2.2s0.7,1.4,1.1,2.1l-3.1,4.4c0.9,1.2,2,2.2,3.1,3.1l4.4-3.1c1.3,0.8,2.8,1.4,4.3,1.8l0.9,5.3
				c1.4,0.2,2.9,0.2,4.4,0l0.9-5.3c0.7-0.2,1.5-0.4,2.2-0.7c0.7-0.3,1.4-0.7,2.1-1.1l4.4,3.1c1.2-0.9,2.2-2,3.1-3.1l-3.1-4.4
				c0.8-1.3,1.4-2.8,1.8-4.3L50.9,34.2z M32,42c-5.5,0-10-4.5-10-10s4.5-10,10-10s10,4.5,10,10S37.5,42,32,42z"/>
		</g>
	</g>
	<g>
		<g>
			<path fill="#F9A319" d="M32,42c-5.5,0-10-4.5-10-10s4.5-10,10-10s10,4.5,10,10S37.5,42,32,42z M32,25c-3.9,0-7,3.1-7,7s3.1,7,7,7
				s7-3.1,7-7S35.9,25,32,25z"/>
		</g>
	</g>
</g>
</svg>
